/* XPM */
static char * WRT_main_icon_xpm[] = {
"32 32 58 1",
" 	c None",
".	c #000000",
"+	c #2F2509",
"@	c #7E6417",
"#	c #AD8920",
"$	c #BD9523",
"%	c #9E7C1D",
"&	c #201906",
"*	c #FCC72E",
"=	c #FCD154",
"-	c #FCDE88",
";	c #FDE295",
">	c #ECBB2B",
",	c #FCD668",
"'	c #FDF3D5",
")	c #FDF9EE",
"!	c #FDECBD",
"~	c #FCD051",
"{	c #100C03",
"]	c #FCD86D",
"^	c #FDF4DB",
"/	c #FCD35E",
"(	c #FDF0C9",
"_	c #FDEDBF",
":	c #FCCC41",
"<	c #FDE7A8",
"[	c #FDECBA",
"}	c #FDDE85",
"|	c #FCCD46",
"1	c #FDE9AD",
"2	c #FCD259",
"3	c #FDE6A2",
"4	c #FCCF4B",
"5	c #FDD564",
"6	c #FDE499",
"7	c #FCCE49",
"8	c #FCCE47",
"9	c #FDE292",
"0	c #FCC934",
"a	c #FDE08C",
"b	c #FDDA75",
"c	c #FDD35B",
"d	c #FDDF88",
"e	c #FCCD45",
"f	c #FDD665",
"g	c #FDDE86",
"h	c #FCD04F",
"i	c #FCCD44",
"j	c #FDD769",
"k	c #FDDE84",
"l	c #FCCA39",
"m	c #DDAE28",
"n	c #8E701A",
"o	c #4F3E0E",
"p	c #6E5714",
"q	c #3F320C",
"r	c #CDA225",
"s	c #5F4B11",
"    ........................    ",
"   ..+@#$%@@@@@@@@@@@@#$#@+..   ",
"  .&$**=-;;;;;;;;;;;;;;-=**$&.  ",
" .&>*,'))))))))))))))))))!~*>{. ",
"..$*]^^^^^^^^^^^^^^^^^^^^^^]*$..",
".+*/(((((((((((((((((((((((_:*+.",
".@*<[[[[[[[[[[[[[[[[[[[[[[[[}*@.",
".@|11111111111111111111111111*@.",
".@2333333333333333333333333334@.",
".@5666666666666666666666666667@.",
".@8999999999999999999999999990@.",
".@0aaaaaaaaaaaaaaaaaaaaaaaaab*@.",
".@*cdddddddddddddddddddddddde*@.",
".@**fggggggggggggggggggggggh**@.",
".@***ijkkkkkkkkkkkkkkkkkkji***@.",
".@******liiiiiiiiiiiiiil******@.",
".@****************************@.",
".@****************************@.",
".@@@>*m@n**$@$m@@@@%>*$@@@@@@$@.",
".@+.$*@..>*o.%$.....{m@......@@.",
".@p.@*+..#*{.>$.q*>&.n***..***@.",
".$#.q>.{.pr.+*$.q**+.#***..***$.",
".$>.{#.%{+n.p*$.{q{.s****..***$.",
".$*+.q.mo.q.$*$.&p.{r****..***$.",
".#*@..&*n...**$.q*p.+>***..***%.",
".@*$..p*r..o**$.q**+.s***..***@.",
".+**@@r**@@$**m@%**m@@m**@@***+.",
"..$**************************$..",
" .{r************************r{. ",
"  .{$**********************${.  ",
"   ..+@@@@@@@@%$$%@@@@@@@p+..   ",
"     ......................     "};
